<?xml version="1.0" encoding="UTF-8" standalone="no"?>
<!-- Created with Inkscape (http://www.inkscape.org/) -->

<svg
   width="210mm"
   height="297mm"
   viewBox="0 0 210 297"
   version="1.1"
   id="svg1"
   xml:space="preserve"
   sodipodi:docname="robotika.svg"
   inkscape:version="1.4.2 (f4327f4, 2025-05-13)"
   inkscape:export-filename="robotika.png"
   inkscape:export-xdpi="96"
   inkscape:export-ydpi="96"
   xmlns:inkscape="http://www.inkscape.org/namespaces/inkscape"
   xmlns:sodipodi="http://sodipodi.sourceforge.net/DTD/sodipodi-0.dtd"
   xmlns="http://www.w3.org/2000/svg"
   xmlns:svg="http://www.w3.org/2000/svg"><sodipodi:namedview
     id="namedview1"
     pagecolor="#ffffff"
     bordercolor="#000000"
     borderopacity="0.25"
     inkscape:showpageshadow="2"
     inkscape:pageopacity="0.0"
     inkscape:pagecheckerboard="0"
     inkscape:deskcolor="#d1d1d1"
     inkscape:document-units="mm"
     inkscape:zoom="1.4142136"
     inkscape:cx="314.30896"
     inkscape:cy="378.30213"
     inkscape:window-width="935"
     inkscape:window-height="1032"
     inkscape:window-x="78"
     inkscape:window-y="0"
     inkscape:window-maximized="0"
     inkscape:current-layer="g15" /><defs
     id="defs1"><rect
       x="198.42763"
       y="630.82614"
       width="396.84663"
       height="216.60858"
       id="rect14" /><rect
       x="198.42763"
       y="630.82611"
       width="396.84662"
       height="216.60858"
       id="rect14-0" /></defs><g
     inkscape:label="Réteg 1"
     inkscape:groupmode="layer"
     id="layer1"><g
       id="g15"><rect
         style="fill:none;fill-opacity:1;fill-rule:evenodd;stroke:#000000;stroke-width:1.465;stroke-dasharray:none;stroke-opacity:1"
         id="rect1"
         width="170"
         height="270"
         x="20"
         y="13.5" /><rect
         style="fill:#cccccc;fill-rule:evenodd;stroke:#000000;stroke-width:0.965;stroke-dasharray:none;stroke-opacity:1;fill-opacity:1"
         id="rect2"
         width="79.494003"
         height="49.315987"
         x="65.252998"
         y="57.964684"
         rx="6.9000001"
         ry="6.6999998" /><rect
         style="fill:#cccccc;fill-rule:evenodd;stroke:#000000;stroke-width:0.965;stroke-dasharray:none;stroke-opacity:1;fill-opacity:1"
         id="rect2-7"
         width="21.691999"
         height="15.456163"
         x="94.153984"
         y="107.43461" /><ellipse
         style="fill:#cccccc;fill-opacity:1;stroke:#000000;stroke-width:0.965;stroke-dasharray:none;stroke-opacity:1"
         id="path2-7-0-3"
         cx="136.64838"
         cy="125.74612"
         rx="8.6367846"
         ry="8.6368713" /><rect
         style="fill:#cccccc;fill-opacity:1;fill-rule:evenodd;stroke:#000000;stroke-width:0.96904151;stroke-linejoin:round;stroke-dasharray:none;stroke-opacity:1"
         id="rect2-7-7-9-8"
         width="5.6009469"
         height="23.568699"
         x="99.757568"
         y="106.92538"
         transform="matrix(0.91496285,0.40353808,-0.28237103,0.95930527,0,0)" /><rect
         style="fill:#cccccc;fill-opacity:1;fill-rule:evenodd;stroke:#000000;stroke-width:0.965;stroke-linejoin:round;stroke-dasharray:none;stroke-opacity:1"
         id="rect2-7-7-9"
         width="8.8623075"
         height="19.997795"
         x="107.72224"
         y="93.63488"
         transform="rotate(21.583517)" /><ellipse
         style="fill:#cccccc;fill-opacity:1;stroke:#000000;stroke-width:0.965;stroke-dasharray:none;stroke-opacity:1"
         id="path2-7-0"
         cx="72.546974"
         cy="125.74612"
         rx="8.6367846"
         ry="8.6368713" /><rect
         style="fill:#008080;fill-rule:evenodd;stroke:#000000;stroke-width:1.43486;stroke-linejoin:round;stroke-dasharray:none;stroke-opacity:1;fill-opacity:1"
         id="rect2-7-7-8"
         width="104.999"
         height="57.311012"
         x="52.500645"
         y="166.90608" /><g
         id="g12"><circle
           style="fill:#ffffff;fill-opacity:1;stroke:#000000;stroke-width:0.964999;stroke-dasharray:none;stroke-opacity:1"
           id="path2"
           cx="88.327133"
           cy="76.272675"
           r="8.4646835" /><ellipse
           style="fill:#000000;fill-opacity:1;stroke:#000000;stroke-width:0.964999;stroke-dasharray:none;stroke-opacity:1"
           id="path3"
           cx="88.419144"
           cy="78.848877"
           rx="4.5999999"
           ry="4.6003718" /></g><g
         id="g11"><circle
           style="fill:#ffffff;fill-opacity:1;stroke:#000000;stroke-width:0.964999;stroke-dasharray:none;stroke-opacity:1"
           id="path2-8"
           cx="121.11362"
           cy="76.272675"
           r="8.4646835" /><ellipse
           style="fill:#000000;fill-opacity:1;stroke:#000000;stroke-width:0.964999;stroke-dasharray:none;stroke-opacity:1"
           id="path3-2"
           cx="121.20564"
           cy="78.848877"
           rx="4.5999999"
           ry="4.6003718" /></g><path
         id="path4"
         style="fill:#cccccc;fill-opacity:1;stroke:#000000;stroke-width:0.965;stroke-dasharray:none;stroke-opacity:1"
         d="m 57.547365,160.90025 a 5.671176,5.6711373 0 0 0 -5.670972,5.67097 5.671176,5.6711373 0 0 0 3.66696,5.3051 v -4.17649 h 4.008024 v 4.17649 a 5.671176,5.6711373 0 0 0 3.666959,-5.3051 5.671176,5.6711373 0 0 0 -5.670971,-5.67097 z" /><rect
         style="fill:#cccccc;fill-opacity:1;fill-rule:evenodd;stroke:#000000;stroke-width:0.969042;stroke-linejoin:round;stroke-dasharray:none;stroke-opacity:1"
         id="rect2-7-7-9-8-6"
         width="5.6009469"
         height="23.568699"
         x="-102.67191"
         y="192.07872"
         transform="matrix(-0.91496285,0.40353808,0.28237103,0.95930527,0,0)" /><rect
         style="fill:#cccccc;fill-opacity:1;fill-rule:evenodd;stroke:#000000;stroke-width:0.965;stroke-linejoin:round;stroke-dasharray:none;stroke-opacity:1"
         id="rect2-7-7-9-81"
         width="8.8623075"
         height="19.997795"
         x="-86.86515"
         y="170.61252"
         transform="matrix(-0.92988235,0.36785706,0.36785706,0.92988235,0,0)" /><ellipse
         style="fill:#cccccc;fill-opacity:1;stroke:#000000;stroke-width:0.965;stroke-dasharray:none;stroke-opacity:1"
         id="path2-7-0-9"
         cx="-136.71304"
         cy="125.74612"
         rx="8.6367846"
         ry="8.6368713"
         transform="scale(-1,1)" /><rect
         style="fill:#cccccc;fill-rule:evenodd;stroke:#000000;stroke-width:0.965;stroke-dasharray:none;stroke-opacity:1;stroke-linejoin:round;fill-opacity:1"
         id="rect2-7-7"
         width="61.806"
         height="44.038197"
         x="74.097"
         y="122.89077" /><rect
         style="fill:#ffffff;fill-rule:evenodd;stroke:#000000;stroke-width:0.771475;stroke-linejoin:round;stroke-dasharray:none;stroke-opacity:1;fill-opacity:1"
         id="rect2-7-7-3"
         width="49.410999"
         height="35.2066"
         x="80.294411"
         y="127.30656"
         rx="5.1999998"
         ry="6.3000002" /><path
         id="path4-8"
         style="fill:#cccccc;fill-opacity:1;stroke:#000000;stroke-width:0.965;stroke-dasharray:none;stroke-opacity:1"
         d="m 151.71312,160.90026 a 5.671176,5.6711373 0 0 1 5.671,5.67097 5.671176,5.6711373 0 0 1 -3.66698,5.3051 v -4.17649 h -4.00805 v 4.17649 a 5.671176,5.6711373 0 0 1 -3.66697,-5.3051 5.671176,5.6711373 0 0 1 5.671,-5.67097 z" /><g
         id="g5"
         transform="translate(2.8238506)"><rect
           style="fill:#000000;fill-rule:evenodd;stroke-width:0.176518"
           id="rect5"
           width="21.285255"
           height="1.4274693"
           x="73.63369"
           y="93.109612" /><rect
           style="fill:#000000;fill-rule:evenodd;stroke-width:0.14546"
           id="rect5-5"
           width="14.454052"
           height="1.4274693"
           x="99.083328"
           y="100.59222" /><rect
           style="fill:#000000;fill-rule:evenodd;stroke-width:0.14546"
           id="rect5-5-3"
           width="14.454052"
           height="1.4274693"
           x="116.26456"
           y="95.326698" /><rect
           style="fill:#000000;fill-rule:evenodd;stroke-width:0.176518"
           id="rect5-8"
           width="9.6850004"
           height="1.427"
           x="130.10161"
           y="-27.603868"
           transform="rotate(56.443075)" /><rect
           style="fill:#000000;fill-rule:evenodd;stroke-width:0.176518"
           id="rect5-8-3"
           width="7.085"
           height="1.427"
           x="15.172267"
           y="149.58084"
           transform="matrix(-0.5527652,0.83333705,0.83333705,0.5527652,0,0)" /></g><path
         sodipodi:type="star"
         style="fill:#cccccc;fill-opacity:1;stroke:#000000;stroke-width:0.97305869;stroke-linejoin:round;stroke-dasharray:none;stroke-opacity:1"
         id="path5"
         inkscape:flatsided="true"
         sodipodi:sides="3"
         sodipodi:cx="92.774246"
         sodipodi:cy="41.11734"
         sodipodi:r1="13.282254"
         sodipodi:r2="6.6411271"
         sodipodi:arg1="-1.5707963"
         sodipodi:arg2="-0.52359878"
         inkscape:rounded="0"
         inkscape:randomized="0"
         d="m 92.774247,27.835086 11.502773,19.923382 -23.005544,-10e-7 z"
         inkscape:transform-center-y="-3.3970938"
         transform="matrix(0.57760353,0,0,1.0230463,51.413268,9.1055581)" /><ellipse
         style="fill:#008080;fill-opacity:1;stroke:#000000;stroke-width:0.5;stroke-dasharray:none;stroke-opacity:1"
         id="path2-7"
         cx="105"
         cy="34.429569"
         rx="5.2639999"
         ry="5.2640524" /><path
         style="fill:none;fill-opacity:1;stroke:#000000;stroke-width:1;stroke-dasharray:none;stroke-opacity:1"
         id="path2-7-8"
         sodipodi:type="arc"
         sodipodi:cx="34.429569"
         sodipodi:cy="112.60206"
         sodipodi:rx="5.2789998"
         sodipodi:ry="4.8087268"
         sodipodi:start="0"
         sodipodi:end="3.1415927"
         sodipodi:arc-type="arc"
         d="m 39.708569,112.60206 a 5.2789998,4.8087268 0 0 1 -2.6395,4.16448 5.2789998,4.8087268 0 0 1 -5.279,0 5.2789998,4.8087268 0 0 1 -2.6395,-4.16448"
         transform="matrix(0,1,1,0,0,0)"
         sodipodi:open="true" /><path
         style="fill:none;fill-opacity:1;stroke:#000000;stroke-width:1;stroke-dasharray:none;stroke-opacity:1"
         id="path2-7-8-7"
         sodipodi:type="arc"
         sodipodi:cx="-34.429569"
         sodipodi:cy="116.08566"
         sodipodi:rx="7.669888"
         sodipodi:ry="7.4877543"
         sodipodi:start="0"
         sodipodi:end="3.1415927"
         sodipodi:arc-type="arc"
         d="m -26.759681,116.08566 a 7.669888,7.4877543 0 0 1 -3.834944,6.48459 7.669888,7.4877543 0 0 1 -7.669888,0 7.669888,7.4877543 0 0 1 -3.834944,-6.48459"
         sodipodi:open="true"
         transform="rotate(-90)" /><path
         style="fill:none;fill-opacity:1;stroke:#000000;stroke-width:1;stroke-dasharray:none;stroke-opacity:1"
         id="path2-7-8-7-6"
         sodipodi:type="arc"
         sodipodi:cx="-34.429569"
         sodipodi:cy="122.02025"
         sodipodi:rx="9.4835701"
         sodipodi:ry="9.2799654"
         sodipodi:start="0"
         sodipodi:end="3.1415927"
         sodipodi:arc-type="arc"
         d="m -24.945999,122.02025 a 9.4835701,9.2799654 0 0 1 -4.741785,8.03668 9.4835701,9.2799654 0 0 1 -9.483571,0 9.4835701,9.2799654 0 0 1 -4.741784,-8.03668"
         sodipodi:open="true"
         transform="rotate(-90)" /><path
         style="fill:#008080;fill-opacity:1;stroke:none;stroke-width:0.0718544;stroke-linejoin:bevel;stroke-dasharray:none;stroke-opacity:1"
         d="m 88.928899,156.83019 c -0.208035,-0.0889 -0.132334,0.3096 -0.848905,-4.46835 -0.23267,-1.55139 -0.344429,-2.29486 -0.494389,-3.28898 -0.08519,-0.56464 -0.204921,-1.36028 -0.266091,-1.76808 -0.06119,-0.40778 -0.15427,-1.02407 -0.206886,-1.36953 -0.05264,-0.34545 -0.147634,-0.97736 -0.21116,-1.40426 -0.06358,-0.42689 -0.123403,-0.78406 -0.133045,-0.7937 -0.02384,-0.0238 -0.02576,-0.0175 -0.269298,0.86585 -0.117881,0.42757 -0.239951,0.81653 -0.271263,0.8643 -0.03133,0.0478 -0.119332,0.10422 -0.195608,0.12539 -0.08741,0.0243 -1.104885,0.0388 -2.752746,0.0389 l -2.614069,1.3e-4 v -0.37996 -0.37996 l 2.495311,-0.0102 2.495315,-0.0102 0.434679,-1.57797 c 0.239065,-0.86787 0.458731,-1.6149 0.488131,-1.6601 0.07945,-0.12208 0.293902,-0.18304 0.42238,-0.12006 0.198898,0.0974 0.229759,0.19264 0.373896,1.15278 0.07534,0.50192 0.187073,1.24622 0.248289,1.654 0.06119,0.40779 0.163562,1.09221 0.22746,1.52091 0.06388,0.42871 0.132724,0.88213 0.152949,1.00761 0.02025,0.12548 0.08771,0.57035 0.149984,0.98859 0.06225,0.41826 0.164877,1.10266 0.22801,1.52092 0.207434,1.3741 0.421959,2.80637 0.484083,3.23196 0.05991,0.41036 0.122883,0.63344 0.125366,0.44399 4.8e-4,-0.0487 0.02644,-0.39078 0.0574,-0.76044 0.05792,-0.69258 0.150863,-1.82753 0.285382,-3.48586 0.0424,-0.5228 0.09401,-1.15589 0.114646,-1.40683 0.02071,-0.25097 0.07228,-0.88403 0.114655,-1.40687 0.0424,-0.5228 0.111331,-1.36975 0.153171,-1.88212 0.07519,-0.92069 0.09549,-1.17066 0.282814,-3.47907 0.05256,-0.64829 0.112676,-1.38406 0.133481,-1.63498 0.02085,-0.25097 0.07181,-0.87549 0.11337,-1.38786 0.102262,-1.26114 0.216031,-2.65319 0.302926,-3.70651 l 0.07212,-0.87386 0.11777,-0.10522 c 0.184621,-0.16497 0.460208,-0.12556 0.57111,0.0816 0.02032,0.0379 0.105867,0.81983 0.190166,1.73761 0.0843,0.91777 0.221927,2.41295 0.305827,3.32266 0.08388,0.9097 0.237979,2.5865 0.342408,3.72623 0.104421,1.13975 0.239879,2.61704 0.301,3.28285 0.06113,0.66582 0.120217,1.21967 0.131321,1.23078 0.01105,0.011 0.06804,-0.06 0.126543,-0.15773 0.448362,-0.74987 0.689292,-1.10904 0.772003,-1.15088 0.07432,-0.0377 0.873724,-0.0482 3.697481,-0.0487 1.981465,-3e-4 3.602664,-0.0122 3.602664,-0.0263 0,-0.014 -0.32168,-0.35207 -0.71484,-0.75094 -2.145328,-2.17661 -3.254985,-3.97528 -3.559909,-5.7704 -0.06246,-0.36793 -0.08356,-1.16037 -0.03945,-1.47959 0.317323,-2.29172 1.84121,-3.83283 4.060989,-4.10692 0.42806,-0.0528 1.27443,-0.0229 1.65383,0.0588 1.05033,0.2257 1.94958,0.78432 2.57315,1.59844 0.12058,0.15745 0.22489,0.28625 0.23179,0.28625 0.007,0 0.0819,-0.0938 0.16665,-0.2086 0.92949,-1.25823 2.31756,-1.88902 3.88643,-1.76617 2.34028,0.18329 4.02038,1.59791 4.44528,3.74285 0.0872,0.44048 0.0693,1.50936 -0.0337,2.00115 -0.29564,1.41297 -1.11864,2.92646 -2.47603,4.5535 -0.39454,0.47289 -1.40376,1.56239 -1.60114,1.7285 -0.068,0.0572 -0.11722,0.11032 -0.10937,0.11805 0.008,0.008 1.7852,0.0265 3.94967,0.042 3.20716,0.0229 3.94992,0.0375 4.01404,0.0794 0.0434,0.0283 0.22055,0.31238 0.39397,0.63139 0.17339,0.31898 0.32869,0.59445 0.34509,0.61213 0.0424,0.0457 0.0557,-0.0624 0.24591,-1.99035 0.26011,-2.6377 0.76316,-7.71 0.93143,-9.39163 l 0.15025,-1.50191 0.11615,-0.10456 c 0.13292,-0.11969 0.31603,-0.13829 0.4484,-0.0455 0.16232,0.11366 0.1373,-0.0678 0.35095,2.54557 0.0427,0.52283 0.10302,1.26284 0.13391,1.64448 0.0309,0.38167 0.0815,1.00619 0.1124,1.38785 0.0309,0.38166 0.0908,1.11739 0.13308,1.63499 0.0423,0.51757 0.11122,1.36453 0.15317,1.88212 0.042,0.51758 0.0931,1.14639 0.11383,1.39735 0.0206,0.25093 0.0715,0.87547 0.11299,1.38781 0.0415,0.51237 0.1098,1.35077 0.15176,1.86314 0.0419,0.51235 0.11066,1.35931 0.15269,1.88211 0.0908,1.12853 0.12989,1.60409 0.22993,2.79352 0.0412,0.49079 0.0751,0.97416 0.0751,1.07412 0,0.10003 0.0171,0.18181 0.038,0.18181 0.0208,0 0.038,-0.0132 0.038,-0.0294 0,-0.0517 1.67056,-10.89843 1.69275,-10.99092 0.077,-0.32108 0.54606,-0.36393 0.69291,-0.0632 0.0203,0.0418 0.22221,0.73909 0.44839,1.54943 l 0.41127,1.4734 h 2.21764 2.21765 v 0.38104 0.38105 l -2.43262,-0.0103 -2.43262,-0.0103 -0.0968,-0.0969 c -0.0756,-0.0755 -0.14376,-0.26523 -0.30767,-0.85501 -0.20521,-0.73817 -0.22834,-0.80787 -0.25735,-0.77487 -0.0115,0.0132 -0.12733,0.73674 -0.33396,2.08809 -0.0207,0.13593 -0.0525,0.34125 -0.0706,0.45628 -0.0181,0.11502 -0.0684,0.44011 -0.11169,0.72242 -1.14968,7.47749 -1.44241,9.32119 -1.48889,9.37724 -0.0293,0.0352 -0.11017,0.0879 -0.17976,0.11707 -0.11232,0.047 -0.14215,0.0452 -0.26614,-0.0152 -0.0767,-0.0378 -0.1589,-0.11107 -0.18238,-0.16335 -0.0235,-0.0522 -0.0797,-0.55702 -0.12472,-1.12167 -0.0451,-0.56464 -0.0982,-1.21483 -0.11806,-1.44487 -0.0198,-0.23005 -0.071,-0.85456 -0.11345,-1.38783 -0.0427,-0.53328 -0.11143,-1.3845 -0.15294,-1.89164 -0.13451,-1.64272 -0.22806,-2.78955 -0.28464,-3.48858 -0.10859,-1.34221 -0.17047,-2.10422 -0.24548,-3.02284 -0.0418,-0.51236 -0.11076,-1.35931 -0.15316,-1.88213 -0.0424,-0.5228 -0.094,-1.15589 -0.11498,-1.40684 -0.0208,-0.25095 -0.0821,-0.99525 -0.13631,-1.65399 -0.0542,-0.65875 -0.10458,-1.20402 -0.11212,-1.21173 -0.0249,-0.0254 -0.0507,0.16009 -0.10991,0.79348 -0.0704,0.75322 -0.49879,5.10835 -0.55543,5.64638 -0.0219,0.20913 -0.10609,1.04563 -0.18687,1.85889 -0.16091,1.62051 -0.16555,1.63962 -0.41633,1.71153 -0.23742,0.068 -0.33157,-0.0207 -0.66559,-0.62809 -0.57973,-1.05415 -0.86876,-1.57366 -0.88594,-1.5925 -0.009,-0.0104 -1.9679,-0.0276 -4.35193,-0.038 l -4.33457,-0.0191 -0.11095,-0.12417 c -0.0734,-0.0822 -0.11092,-0.16515 -0.11092,-0.24561 0,-0.10803 0.0959,-0.216 0.86942,-0.97848 1.31685,-1.29812 2.01415,-2.11412 2.71345,-3.17532 0.88959,-1.34997 1.33272,-2.59471 1.33363,-3.74639 0.002,-1.74518 -1.00504,-3.1333 -2.65415,-3.66071 -1.39024,-0.44463 -2.60731,-0.29696 -3.60311,0.4372 -0.3257,0.24012 -0.72469,0.67198 -0.94266,1.02022 -0.38765,0.61941 -0.39127,0.62392 -0.53027,0.65742 -0.17747,0.0429 -0.32877,-0.0199 -0.41032,-0.16994 -0.31626,-0.58181 -0.77677,-1.14374 -1.20069,-1.46504 -0.30041,-0.22771 -0.8409,-0.48472 -1.24523,-0.59216 -0.27744,-0.0736 -0.41462,-0.0847 -1.06011,-0.0848 -0.64139,-1.4e-4 -0.78665,0.0112 -1.07632,0.0844 -1.335826,0.33782 -2.25796,1.21192 -2.688938,2.54893 -0.538901,1.67181 -0.06247,3.43301 1.486237,5.49447 0.667177,0.88807 1.469671,1.76005 2.668751,2.89979 0.57885,0.55021 0.59886,0.57433 0.59886,0.72165 0,0.19633 -0.0809,0.30863 -0.25778,0.35773 -0.093,0.0258 -1.49511,0.0398 -4.095832,0.0405 l -3.954382,0.002 -0.231309,0.38871 c -0.578302,0.97182 -0.979918,1.61304 -1.064504,1.69961 -0.141784,0.14516 -0.370012,0.13222 -0.514159,-0.029 -0.06063,-0.0679 -0.110178,-0.16173 -0.110178,-0.20864 0,-0.047 -0.07719,-0.92358 -0.171522,-1.94808 l -0.285313,-3.09854 c -0.06259,-0.67968 -0.184191,-2.01427 -0.270256,-2.96578 -0.08605,-0.95155 -0.169238,-1.74401 -0.18487,-1.76109 -0.01558,-0.0171 -0.04011,0.1284 -0.05433,0.32321 -0.01429,0.19481 -0.05898,0.7563 -0.09937,1.24775 -0.09583,1.16601 -0.208441,2.54563 -0.303377,3.71673 -0.04195,0.5176 -0.09317,1.1464 -0.113828,1.39735 -0.02071,0.25095 -0.07153,0.87547 -0.113003,1.38781 -0.0415,0.51239 -0.110438,1.35934 -0.153171,1.88215 -0.04272,0.52281 -0.102994,1.26283 -0.1339,1.6445 -0.07143,0.88191 -0.144217,1.77602 -0.265425,3.26046 -0.05294,0.64828 -0.121248,1.48669 -0.151812,1.86311 -0.186626,2.29872 -0.171185,2.18403 -0.310343,2.3052 -0.104624,0.0911 -0.245546,0.11068 -0.380762,0.0528 z"
         id="path12"
         sodipodi:nodetypes="csscccssscscccccssssssssssccscssccsscssssssscscssccccsscsscscccssccscsccsccscssssssscssccccccccscssccccssscsscccscccssscccsssscssscsssccsssscccssssscsccsscsssssccc" /><text
         xml:space="preserve"
         transform="matrix(0.26458333,0,0,0.26458333,7.4644774,5.9455302)"
         id="text14-4"
         style="font-style:normal;font-variant:normal;font-weight:normal;font-stretch:normal;font-size:74.6667px;font-family:'Franklin Gothic Book';-inkscape-font-specification:'Franklin Gothic Book, Normal';font-variant-ligatures:normal;font-variant-caps:normal;font-variant-numeric:normal;font-variant-east-asian:normal;text-align:start;writing-mode:lr-tb;direction:ltr;white-space:pre;shape-inside:url(#rect14-0);display:inline;fill:#000000;fill-opacity:1;stroke:none;stroke-width:1.88976;stroke-linejoin:bevel;stroke-dasharray:none;stroke-opacity:1"
         inkscape:label="text14-4"><tspan
           x="198.42773"
           y="698.89349"
           id="tspan5">ROBOTIKA-
</tspan><tspan
           x="198.42773"
           y="792.22687"
           id="tspan6">SZAKKÖR</tspan></text><text
         xml:space="preserve"
         transform="matrix(0.26458333,0,0,0.26458333,6.9353107,4.8871968)"
         id="text14"
         style="font-style:normal;font-variant:normal;font-weight:normal;font-stretch:normal;font-size:74.6667px;font-family:'Franklin Gothic Book';-inkscape-font-specification:'Franklin Gothic Book, Normal';font-variant-ligatures:normal;font-variant-caps:normal;font-variant-numeric:normal;font-variant-east-asian:normal;text-align:start;writing-mode:lr-tb;direction:ltr;white-space:pre;shape-inside:url(#rect14);display:inline;fill:#008080;fill-opacity:1;stroke:none;stroke-width:1.88976;stroke-linejoin:bevel;stroke-dasharray:none;stroke-opacity:1"><tspan
           x="198.42773"
           y="698.89349"
           id="tspan8"><tspan
             style="fill:#ffffff"
             id="tspan7">ROBOTIKA-
</tspan></tspan><tspan
           x="198.42773"
           y="792.22687"
           id="tspan10"><tspan
             style="fill:#ffffff"
             id="tspan9">SZAKKÖR</tspan></tspan></text></g></g></svg>
