<?xml version="1.0" encoding="UTF-8" standalone="no"?>
<!-- Created with Inkscape (http://www.inkscape.org/) -->

<svg
   width="210mm"
   height="297mm"
   viewBox="0 0 210 297"
   version="1.1"
   id="svg1"
   xml:space="preserve"
   inkscape:version="1.4.2 (f4327f4, 2025-05-13)"
   sodipodi:docname="logo12 (1).svg"
   inkscape:export-filename="logo12.png"
   inkscape:export-xdpi="96.099998"
   inkscape:export-ydpi="96.099998"
   xmlns:inkscape="http://www.inkscape.org/namespaces/inkscape"
   xmlns:sodipodi="http://sodipodi.sourceforge.net/DTD/sodipodi-0.dtd"
   xmlns:xlink="http://www.w3.org/1999/xlink"
   xmlns="http://www.w3.org/2000/svg"
   xmlns:svg="http://www.w3.org/2000/svg"
   xmlns:rdf="http://www.w3.org/1999/02/22-rdf-syntax-ns#"
   xmlns:cc="http://creativecommons.org/ns#"
   xmlns:dc="http://purl.org/dc/elements/1.1/"><metadata
     id="metadata3801"><rdf:RDF><cc:Work
         rdf:about=""><dc:format>image/svg+xml</dc:format><dc:type
           rdf:resource="http://purl.org/dc/dcmitype/StillImage" /><dc:title /></cc:Work></rdf:RDF></metadata><sodipodi:namedview
     id="namedview1"
     pagecolor="#ffffff"
     bordercolor="#000000"
     borderopacity="0.25"
     inkscape:showpageshadow="2"
     inkscape:pageopacity="0.0"
     inkscape:pagecheckerboard="0"
     inkscape:deskcolor="#d1d1d1"
     inkscape:document-units="mm"
     inkscape:zoom="0.5"
     inkscape:cx="543"
     inkscape:cy="425"
     inkscape:window-width="1920"
     inkscape:window-height="1057"
     inkscape:window-x="-8"
     inkscape:window-y="-8"
     inkscape:window-maximized="1"
     inkscape:current-layer="layer1"
     showgrid="false"
     inkscape:export-bgcolor="#ffffff00" /><defs
     id="defs1"><linearGradient
       id="linearGradient1"
       inkscape:collect="always"><stop
         style="stop-color:#4b6dd9;stop-opacity:1;"
         offset="0"
         id="stop1" /><stop
         style="stop-color:#ad6eb2;stop-opacity:1;"
         offset="1"
         id="stop2" /></linearGradient><linearGradient
       inkscape:collect="always"
       xlink:href="#linearGradient1"
       id="linearGradient2"
       x1="4.618988"
       y1="104.21297"
       x2="204.61899"
       y2="104.21297"
       gradientUnits="userSpaceOnUse"
       gradientTransform="translate(-280.49128,-57.88601)" /></defs><g
     inkscape:label="Layer 1"
     inkscape:groupmode="layer"
     id="layer1"><circle
   style="opacity:1;fill:url(#linearGradient2);stroke-width:0.264583"
   id="path1"
   cx="-175.8723"
   cy="46.326958"
   r="100"
   transform="rotate(-110.50581)" /><path
   id="path31"
   style="opacity:1;fill:#282f55;fill-opacity:1;stroke-width:0.245684"
   d="M 104.99979 83.499813 A 65 65 0 0 0 40.000142 148.49998 A 65 65 0 0 0 104.99979 213.50015 A 65 65 0 0 0 169.99996 148.49998 A 65 65 0 0 0 104.99979 83.499813 z M 105.00031 87.499569 A 25.5 25.5 0 0 1 118.83874 91.589242 A 58.75 58.75 0 0 1 161.88676 134.62382 A 25.5 25.5 0 0 1 166.0002 148.49998 A 25.5 25.5 0 0 1 161.91105 162.33789 A 58.75 58.75 0 0 1 118.87698 205.38643 A 25.5 25.5 0 0 1 105.00031 209.50039 A 25.5 25.5 0 0 1 91.156193 205.40968 A 58.75 58.75 0 0 1 48.112826 162.37355 A 25.5 25.5 0 0 1 43.999898 148.49998 A 25.5 25.5 0 0 1 48.112826 134.62641 A 58.75 58.75 0 0 1 91.156193 91.590275 A 25.5 25.5 0 0 1 105.00031 87.499569 z " /><path
   id="path4"
   style="opacity:1;fill:#282f55;fill-opacity:1;stroke-width:0.8072"
   d="M 125.80731 169.27132 A 25.5 25.5 0 0 1 130.50004 184.00014 A 25.5 25.5 0 0 1 126.51941 197.667 A 53.75 53.75 0 0 0 154.265 169.95758 A 25.5 25.5 0 0 1 140.49995 174.00023 A 25.5 25.5 0 0 1 125.80731 169.27132 z " /><path
   id="path30"
   style="opacity:1;fill:#282f55;fill-opacity:1;stroke-width:0.8072"
   d="M 84.323018 169.24135 A 25.5 25.5 0 0 1 69.500151 174.00023 A 25.5 25.5 0 0 1 55.858089 170.03148 A 53.75 53.75 0 0 0 83.50188 197.70214 A 25.5 25.5 0 0 1 79.500057 184.00014 A 25.5 25.5 0 0 1 84.323018 169.24135 z " /><path
   id="path32"
   style="opacity:1;fill:#282f55;fill-opacity:1;stroke-width:0.8072"
   d="M 83.50188 99.297815 A 53.75 53.75 0 0 0 55.858089 126.96848 A 25.5 25.5 0 0 1 69.500151 122.99973 A 25.5 25.5 0 0 1 84.323018 127.75861 A 25.5 25.5 0 0 1 79.500057 112.99982 A 25.5 25.5 0 0 1 83.50188 99.297815 z " /><path
   id="path28"
   style="opacity:1;fill:#282f55;fill-opacity:1;stroke-width:0.8072"
   d="M 126.45791 99.235286 A 25.5 25.5 0 0 1 130.50004 112.99982 A 25.5 25.5 0 0 1 125.79181 127.73742 A 25.5 25.5 0 0 1 140.49995 122.99973 A 25.5 25.5 0 0 1 154.1663 126.97985 A 53.75 53.75 0 0 0 126.45791 99.235286 z " /><path
   id="path42"
   style="opacity:1;fill:#282f55;fill-opacity:1;stroke-width:0.360174"
   d="M 105.00031 83.499813 A 29.5 29.5 0 0 0 75.500301 112.99982 A 29.5 29.5 0 0 0 77.851579 124.41101 A 25.5 25.5 0 0 1 84.159204 127.64337 A 25.5 25.5 0 0 1 79.500057 112.99982 A 25.5 25.5 0 0 1 105.00031 87.499569 A 25.5 25.5 0 0 1 130.50004 112.99982 A 25.5 25.5 0 0 1 125.77682 127.74879 A 25.5 25.5 0 0 1 132.18056 124.45597 A 29.5 29.5 0 0 0 134.4998 112.99982 A 29.5 29.5 0 0 0 105.00031 83.499813 z " /><path
   id="path37"
   style="fill:#282f55;fill-opacity:1;stroke-width:0.360174;opacity:1"
   d="M 140.49995 118.99997 A 29.5 29.5 0 0 0 129.08876 121.35125 A 25.5 25.5 0 0 1 125.85692 127.65784 A 25.5 25.5 0 0 1 140.49995 122.99973 A 25.5 25.5 0 0 1 166.0002 148.49998 A 25.5 25.5 0 0 1 140.49995 174.00023 A 25.5 25.5 0 0 1 125.85692 169.34212 A 25.5 25.5 0 0 1 129.08876 175.64871 A 29.5 29.5 0 0 0 140.49995 177.99999 A 29.5 29.5 0 0 0 169.99996 148.49998 A 29.5 29.5 0 0 0 140.49995 118.99997 z " /><path
   id="path40"
   style="fill:#282f55;fill-opacity:1;stroke-width:0.360174"
   d="M 77.851579 172.58895 A 29.5 29.5 0 0 0 75.500301 184.00014 A 29.5 29.5 0 0 0 105.00031 213.50015 A 29.5 29.5 0 0 0 134.4998 184.00014 A 29.5 29.5 0 0 0 132.18056 172.54399 A 25.5 25.5 0 0 1 125.77682 169.25117 A 25.5 25.5 0 0 1 130.50004 184.00014 A 25.5 25.5 0 0 1 105.00031 209.50039 A 25.5 25.5 0 0 1 79.500057 184.00014 A 25.5 25.5 0 0 1 84.159204 169.35659 A 25.5 25.5 0 0 1 77.851579 172.58895 z " /><g
   id="g39"
   style="fill:#282f55;fill-opacity:1"><path
     id="path38"
     style="fill:#282f55;fill-opacity:1;stroke-width:0.360174"
     d="M 69.500151 118.99997 A 29.5 29.5 0 0 0 40.000142 148.49998 A 29.5 29.5 0 0 0 69.500151 177.99999 A 29.5 29.5 0 0 0 80.956299 175.68075 A 25.5 25.5 0 0 1 84.220699 169.31473 A 25.5 25.5 0 0 1 69.500151 174.00023 A 25.5 25.5 0 0 1 43.999898 148.49998 A 25.5 25.5 0 0 1 69.500151 122.99973 A 25.5 25.5 0 0 1 84.220699 127.68523 A 25.5 25.5 0 0 1 80.956299 121.31921 A 29.5 29.5 0 0 0 69.500151 118.99997 z " /></g><path
   id="path45"
   style="fill:#282f55;fill-opacity:1;stroke-width:0.303673"
   d="M 84.190727 132.80946 A 21.49979 21.49979 0 0 0 69.500151 127 A 21.49979 21.49979 0 0 0 48.000171 148.49998 A 21.49979 21.49979 0 0 0 69.500151 169.99996 A 21.49979 21.49979 0 0 0 84.190727 164.19049 L 79.591524 159.59129 A 14.999853 14.999853 0 0 1 69.500151 163.5001 A 14.999853 14.999853 0 0 1 54.500033 148.49998 A 14.999853 14.999853 0 0 1 69.500151 133.49986 A 14.999853 14.999853 0 0 1 79.591524 137.40867 L 84.190727 132.80946 z " /><path
   id="path50"
   style="fill:#282f55;fill-opacity:1;stroke-width:0.303673"
   d="M 104.99979 91.499841 A 21.49979 21.49979 0 0 0 83.499813 112.99982 A 21.49979 21.49979 0 0 0 89.336149 127.66456 L 93.933801 123.06639 A 14.999853 14.999853 0 0 1 90.000191 112.99982 A 14.999853 14.999853 0 0 1 104.99979 97.999703 A 14.999853 14.999853 0 0 1 119.99991 112.99982 A 14.999853 14.999853 0 0 1 116.09111 123.09068 L 120.69082 127.6904 A 21.49979 21.49979 0 0 0 126.50029 112.99982 A 21.49979 21.49979 0 0 0 104.99979 91.499841 z " /><path
   id="path43"
   style="fill:#282f55;fill-opacity:1;stroke-width:0.303673"
   d="M 125.83573 164.16414 A 21.49979 21.49979 0 0 0 140.49995 169.99996 A 21.49979 21.49979 0 0 0 161.99993 148.49998 A 21.49979 21.49979 0 0 0 140.49995 127 A 21.49979 21.49979 0 0 0 125.83573 132.83582 L 130.4339 137.43347 A 14.999853 14.999853 0 0 1 140.49995 133.49986 A 14.999853 14.999853 0 0 1 155.50007 148.49998 A 14.999853 14.999853 0 0 1 140.49995 163.5001 A 14.999853 14.999853 0 0 1 130.4339 159.56649 L 125.83573 164.16414 z " /><path
   id="path46"
   style="fill:#282f55;fill-opacity:1;stroke-width:0.303673"
   d="M 89.336149 169.3354 A 21.49979 21.49979 0 0 0 83.499813 184.00014 A 21.49979 21.49979 0 0 0 104.99979 205.50012 A 21.49979 21.49979 0 0 0 126.50029 184.00014 A 21.49979 21.49979 0 0 0 120.69082 169.30956 L 116.09111 173.90928 A 14.999853 14.999853 0 0 1 119.99991 184.00014 A 14.999853 14.999853 0 0 1 104.99979 199.00026 A 14.999853 14.999853 0 0 1 90.000191 184.00014 A 14.999853 14.999853 0 0 1 93.933801 173.93357 L 89.336149 169.3354 z " /><path
   id="path5-9-1-9-04-3-0"
   style="fill:#282f55;fill-opacity:1;stroke-width:0.0847464"
   d="m 140.49995,142.49998 a 5.9999412,5.9999412 0 0 0 -6,6 5.9999412,5.9999412 0 0 0 6,6 5.9999412,5.9999412 0 0 0 6,-6 5.9999412,5.9999412 0 0 0 -6,-6 z" /><path
   id="path5-9-1-9-04-3-0-6"
   style="fill:#282f55;fill-opacity:1;stroke-width:0.0847464"
   d="m 105.00005,178.00014 a 5.9999412,5.9999412 0 0 0 -5.999997,6 5.9999412,5.9999412 0 0 0 5.999997,6 5.9999412,5.9999412 0 0 0 6,-6 5.9999412,5.9999412 0 0 0 -6,-6 z" /><path
   id="path5-9-1-9-04-3-0-4"
   style="fill:#282f55;fill-opacity:1;stroke-width:0.0847464"
   d="m 69.500151,142.49998 a 5.9999412,5.9999412 0 0 0 -6,6 5.9999412,5.9999412 0 0 0 6,6 5.9999412,5.9999412 0 0 0 6,-6 5.9999412,5.9999412 0 0 0 -6,-6 z" /><path
   id="path5-9-1-9-04-3-0-7"
   style="fill:#282f55;fill-opacity:1;stroke-width:0.0847464"
   d="m 105.00005,106.99982 a 5.9999412,5.9999412 0 0 0 -5.999998,6 5.9999412,5.9999412 0 0 0 5.999998,6 5.9999412,5.9999412 0 0 0 6,-6 5.9999412,5.9999412 0 0 0 -6,-6 z" /><rect
   style="opacity:1;fill:#282f55;fill-opacity:1;stroke-width:0.136344"
   id="rect52"
   width="20.299999"
   height="6.5"
   x="169.11754"
   y="50.111408"
   transform="rotate(45)" /><rect
   style="fill:#282f55;fill-opacity:1;stroke-width:0.136344"
   id="rect52-0"
   width="20.299999"
   height="6.5"
   x="20.563662"
   y="-205.11751"
   transform="rotate(135)" /><rect
   style="fill:#282f55;fill-opacity:1;stroke-width:0.136344"
   id="rect52-0-1"
   width="20.299999"
   height="6.5"
   x="20.579315"
   y="-159.91316"
   transform="rotate(135)" /><rect
   style="fill:#282f55;fill-opacity:1;stroke-width:0.150021"
   id="rect52-8-8"
   width="35.5"
   height="4.5"
   x="169.10172"
   y="49.857265"
   transform="rotate(45)" /><rect
   style="fill:#282f55;fill-opacity:1;stroke-width:0.150021"
   id="rect52-8-8-6"
   width="35.5"
   height="4.5"
   x="5.3610687"
   y="-202.85303"
   transform="rotate(135)" /><rect
   style="fill:#282f55;fill-opacity:1;stroke-width:0.150021"
   id="rect52-8-8-27"
   width="35.5"
   height="4.5"
   x="20.588997"
   y="-160.15491"
   transform="rotate(135)" /><rect
   style="fill:#282f55;fill-opacity:1;stroke-width:0.136344"
   id="rect52-01"
   width="20.299999"
   height="6.5"
   x="169.13475"
   y="4.8972688"
   transform="rotate(45)" /><rect
   style="fill:#282f55;fill-opacity:1;stroke-width:0.150021"
   id="rect52-8-8-2"
   width="35.5"
   height="4.5"
   x="153.93233"
   y="7.1624908"
   transform="rotate(45)" /><rect
   style="fill:#282f55;fill-opacity:1;stroke-width:0.0931773"
   id="rect34-8-4-0-1-9-5"
   width="20.506096"
   height="20.506096"
   x="168.99854"
   y="20.50605"
   transform="rotate(45)" /><text
   xml:space="preserve"
   style="font-style:normal;font-variant:normal;font-weight:normal;font-stretch:normal;font-size:31.75px;font-family:'Berlin Sans FB';-inkscape-font-specification:'Berlin Sans FB, Normal';font-variant-ligatures:normal;font-variant-caps:normal;font-variant-numeric:normal;font-feature-settings:normal;text-align:start;writing-mode:lr-tb;text-anchor:start;opacity:1;fill:#282f55;fill-opacity:1;stroke-width:0.265;stroke-dasharray:none"
   id="text52"
   transform="translate(1.5875)"><textPath
     xlink:href="#path3803"
     id="textPath3811">13.<tspan
   style="font-style:normal;font-variant:normal;font-weight:normal;font-stretch:normal;font-size:28.9278px;font-family:'Berlin Sans FB';-inkscape-font-specification:'Berlin Sans FB, Normal';font-variant-ligatures:normal;font-variant-caps:normal;font-variant-numeric:normal;font-variant-east-asian:normal"
   id="tspan1">C</tspan></textPath></text>
<path
   id="path52"
   style="opacity:0.392265;fill:none;stroke-width:0.279792"
   d="M 174.27107,152.6893 A 70,70 0 0 1 100.19021,218.35532 70,70 0 0 1 34.524192,144.27446 70,70 0 0 1 108.60505,78.608441 70,70 0 0 1 174.27107,152.6893 Z" /><path
   id="path52-6"
   style="opacity:0.392265;fill:none;stroke-width:0.369725"
   d="M 58.044714,228.19455 A 92.499999,92.499999 0 0 0 184.69702,195.45783 92.499999,92.499999 0 0 0 151.9603,68.805511 92.499999,92.499999 0 0 0 25.307987,101.54225 92.499999,92.499999 0 0 0 58.044714,228.19455 Z" /><text
   xml:space="preserve"
   style="font-style:normal;font-variant:normal;font-weight:normal;font-stretch:normal;font-size:24.6944px;font-family:'Berlin Sans FB';-inkscape-font-specification:'Berlin Sans FB, Normal';font-variant-ligatures:normal;font-variant-caps:normal;font-variant-numeric:normal;font-variant-east-asian:normal;letter-spacing:2.64583px;opacity:0.964088;fill:#282f55;fill-opacity:1;stroke-width:0.264999;stroke-dasharray:none"
   id="text56"><textPath
     xlink:href="#path52-6"
     id="textPath57"
     style="font-style:normal;font-variant:normal;font-weight:normal;font-stretch:normal;font-size:24.6944px;font-family:'Berlin Sans FB';-inkscape-font-specification:'Berlin Sans FB, Normal';font-variant-ligatures:normal;font-variant-caps:normal;font-variant-numeric:normal;font-variant-east-asian:normal;letter-spacing:2.64583px;fill:#282f55;fill-opacity:1;stroke-width:0.265"
     rotate="0 0 0 0 0 0 0">CURSED</textPath></text>
<path
   style="opacity:0.96408841;fill:none;stroke-width:0.80163038"
   d="M 79.170844,83.439611 A 69.999996,69.999996 0 0 1 170.06039,122.67084 69.999996,69.999996 0 0 1 130.82916,213.5604 69.999996,69.999996 0 0 1 39.939611,174.32916 69.999996,69.999996 0 0 1 79.170844,83.439611 Z"
   id="path3803"
   inkscape:connector-curvature="0" /></g></svg>
